<?xml version="1.0" encoding="UTF-8"?>
<svg id="Manzana" xmlns="http://www.w3.org/2000/svg" viewBox="0 0 722 432.1">
  <defs>
    <style>
      .cls-1 {
        fill: #664227;
      }

      .cls-1, .cls-2, .cls-3 {
        stroke-width: 0px;
      }

      .cls-2 {
        fill: #3e7c4a;
      }

      .cls-3 {
        fill: #4fa04c;
      }
    </style>
  </defs>
  <g>
    <path class="cls-2" d="M217.3,117.9c-8.9-.9-15.9-5.2-21.4-12.1-5.7-7.2-7.4-15.5-6.6-24.5,1.1-12.5,6.4-23.5,12.8-34,3.7-6.1,7.8-11.8,10.7-18.3.8-1.7,1.2-3.5,1.8-5.4,3.7,2.5,7,5.4,10.1,8.3,11.2,10.4,20.6,22.1,25.7,36.8,3.2,9.4,4.6,19,1,28.7-4.3,11.8-16,20.5-27.8,20.7.4-2.9.9-5.9,1-8.8,0-2.1.9-3.4,2.6-4.4,3-1.8,5.7-4.1,8.3-6.4,1.5-1.3,3.2-2.4,3.7-4.5,0-.1.1-.1.2-.2q-.1.1-.2.2c-.3.1-.6.2-.9.4-3.8,2.8-7.6,5.5-11.6,8-.4.2-.8.7-1.2.5-.5-.2-.3-.8-.3-1.2,0-4.6.9-9.3.1-13.9-.1-.5.3-.7.6-.9,1.8-1.4,3.6-2.7,5.2-4.3,2.3-2.3,4.9-4.5,6.1-7.8.1-.1.2-.3.3-.4l-.1-.1c0,.2-.1.3-.1.5-.4,0-.8.2-1.1.5-2.9,2.8-6,5.4-9.4,7.7-.4.3-.7,1-1.3.8s-.3-.9-.3-1.4c-.1-3.2-.4-6.3-.7-9.5-.1-1.3-.7-2.9.6-3.9,2.5-2,4.6-4.4,6.9-6.7.8-.8,1.7-1.7,1.7-3,0-.1.1-.1.1-.2,0,.1-.1.1-.1.2-2.6,1.9-5.1,3.8-7.7,5.7-1.8,1.3-2,1.2-2.3-1.1v-.6c-.4-5.6-1.3-11.2-2.2-16.7-.1-.8.4-2.4-.8-2.2-1.1.2-.6,1.8-.5,2.6,1.1,6.3,1.3,12.6,2.3,18.9.1,1,0,1.4-1.3,1.2-2.9-.7-5.5-1.9-8.3-2.8-.7-.2-1.4-.9-2.2-.2.3.7.9,1,1.5,1.3,2.9,1.7,5.8,3.3,9,4.3,1.1.3,1.8,1,1.8,2.1-.1,4,.3,8,.5,12,0,1.3-.5,1.4-1.6,1.1-2.5-.7-5-1.5-7.4-2.5-2.1-.8-4-2.1-6.2-2.6-.1,0-.1-.1-.2-.2,0,.1.1.1.2.2.3.4.6.9,1,1.2,3.9,2.8,7.8,5.4,12.5,6.4.9.2,1.6.4,1.7,1.6.2,4.4-.4,8.8-.5,13.2,0,1.1-.5,1.9-2.1,1.4-4.2-1.3-7.9-3.6-11.7-5.4-.5-.2-.8-1.1-1.6-.8,0,.8.6,1.1,1,1.5,3.5,3,7.2,5.6,11.5,7.1,1.8.6,2.5,1.5,2.2,3.4-.3,2-.6,3.9-.8,5.9-.2,1.9-.6,3.3-2.9,2.8-.6-.7-1-.6-1.3-.2h0ZM240.4,93.1q0-.1-.1-.2h-.1q0,.1.1.2h.1Z"/>
    <path class="cls-3" d="M208.1,79.3c2.2.5,4.1,1.7,6.2,2.6,2.4,1,4.9,1.8,7.4,2.5,1.1.3,1.7.2,1.6-1.1-.1-4-.6-8-.5-12,0-1.1-.6-1.8-1.8-2.1-3.2-1-6.1-2.6-9-4.3-.5-.3-1.2-.6-1.5-1.3.8-.7,1.6,0,2.2.2,2.8.9,5.4,2.2,8.3,2.8,1.2.3,1.4-.1,1.3-1.2-1-6.3-1.2-12.7-2.3-18.9-.1-.9-.6-2.5.5-2.6,1.2-.2.7,1.5.8,2.2,1,5.5,1.8,11.1,2.2,16.7v.6c.3,2.3.5,2.4,2.3,1.1,2.6-1.9,5.1-3.8,7.7-5.7h0c0,1.3-.8,2.2-1.7,3-2.3,2.2-4.4,4.6-6.9,6.7-1.3,1.1-.7,2.7-.6,3.9.3,3.2.6,6.3.7,9.5,0,.5-.3,1.2.3,1.4.6.2.9-.5,1.3-.8,3.3-2.3,6.4-4.9,9.4-7.7.3-.3.6-.5,1.1-.5h0c-1.2,3.2-3.7,5.4-6.1,7.8-1.6,1.6-3.5,2.9-5.2,4.3-.3.2-.7.5-.6.9.7,4.7-.1,9.3-.1,13.9,0,.4-.3,1,.3,1.2.5.2.8-.3,1.2-.5,4-2.5,7.8-5.2,11.6-8,.2-.2.6-.2.9-.4h0c-.5,2.1-2.2,3.3-3.7,4.5-2.6,2.3-5.3,4.6-8.3,6.4-1.7,1-2.6,2.3-2.6,4.4-.1,2.9-.6,5.9-1,8.8-.7,2.7-1.3,5.4-2.1,8.1-.5,1.7-1.1,3.4-1.7,5.1-.3.8-.6,1.4-1.5.7-.7-.5-2.1-.3-1.3-2,1.4-2.9,2.1-6,2.9-9.1.4-1.6.7-2.9-1.7-2.7-.4,0-.8-.2-1.1-.3.3-.4.7-.4,1.1-.4,2.3.5,2.8-.9,2.9-2.8.2-2,.5-3.9.8-5.9.3-1.8-.5-2.8-2.2-3.4-4.3-1.5-8-4.1-11.5-7.1-.4-.4-1-.7-1-1.5.8-.3,1.1.6,1.6.8,3.9,1.8,7.5,4.2,11.7,5.4,1.6.5,2-.2,2.1-1.4.1-4.4.7-8.8.5-13.2-.1-1.2-.8-1.4-1.7-1.6-4.8-1-8.7-3.7-12.5-6.4-.2.3-.4-.2-.7-.6h0Z"/>
  </g>
  <g>
    <path class="cls-3" d="M601.9,239.6c-5.8-2.5-9.7-7-11.9-12.9-2.3-6.2-1.7-12.3.9-18.4,3.5-8.4,9.5-14.8,16.1-20.8,3.8-3.4,7.9-6.5,11.3-10.4.9-1,1.6-2.2,2.4-3.4,1.9,2.5,3.5,5.2,5.1,7.9,5.3,9.6,9.2,19.7,9.5,30.9.2,7.2-1,14.1-5.5,20-5.5,7.2-15.3,10.8-23.4,8.4.9-2,1.9-3.9,2.6-5.9.5-1.5,1.4-2.1,2.8-2.5,2.5-.6,4.7-1.6,7-2.6,1.3-.6,2.7-1,3.5-2.4,0,0,.1-.1.2-.1,0,0-.1,0-.2.1-.2,0-.5,0-.7.1-3.2,1.1-6.4,2.2-9.6,3-.3.1-.7.3-.9.1-.3-.3,0-.6.1-.9,1-3.2,2.6-6.2,3.1-9.6,0-.3.3-.4.6-.5,1.5-.6,3-1.1,4.5-1.9,2.1-1.1,4.3-2.1,5.8-4.1.1-.1.2-.1.3-.2,0,0,0-.1-.1-.1-.1.1-.1.2-.2.3-.3-.1-.6,0-.8.1-2.6,1.3-5.3,2.5-8,3.4-.3.1-.7.6-1,.3-.4-.3,0-.7.1-1.1.6-2.2,1.1-4.5,1.6-6.7.2-.9.1-2.1,1.3-2.6,2.1-.9,4.1-2.1,6.1-3.1.8-.4,1.5-.8,1.8-1.8l.1-.1-.1.1c-2.2.8-4.3,1.5-6.5,2.3-1.5.5-1.6.4-1.3-1.2,0-.1.1-.3.1-.4.9-4,1.5-8,2.1-12,.1-.6.8-1.6-.1-1.7-.8-.1-.8,1.1-.9,1.7-.7,4.6-1.8,9-2.6,13.6-.1.7-.3,1-1.1.5-1.8-1.1-3.3-2.5-5-3.7-.4-.3-.8-.9-1.5-.6,0,.5.4.9.7,1.2,1.6,1.8,3.2,3.5,5.2,4.9.7.5,1,1.1.7,1.8-.9,2.7-1.5,5.6-2.3,8.4-.2.9-.7.9-1.4.4-1.5-1-3-2.1-4.5-3.3-1.2-1-2.3-2.3-3.7-3.1q0-.1-.1-.1t.1.1c.2.4.2.8.5,1.1,2,2.7,4.1,5.4,7.1,7.1.6.3,1,.6.8,1.4-.8,3.1-2.2,6-3.2,9-.3.8-.7,1.2-1.7.5-2.6-1.8-4.5-4.2-6.8-6.3-.3-.3-.3-.9-.9-.9-.2.6.2.9.4,1.2,1.7,2.8,3.7,5.4,6.3,7.3,1.1.8,1.4,1.6.8,2.8-.6,1.3-1.3,2.6-1.8,3.9-.5,1.3-1.1,2.1-2.6,1.3-.6.1-.9,0-1.2.2h0ZM623,227.4v-.1h-.1v.1c0,.1.1,0,.1,0Z"/>
    <path class="cls-2" d="M604,211c1.4.8,2.4,2.1,3.7,3.1,1.4,1.2,2.9,2.3,4.5,3.3.7.4,1.1.5,1.4-.4.8-2.8,1.3-5.6,2.3-8.4.2-.7,0-1.4-.7-1.8-2-1.3-3.6-3.1-5.2-4.9-.3-.3-.7-.7-.7-1.2.7-.3,1.1.3,1.5.6,1.7,1.2,3.2,2.6,5,3.7.8.5,1,.2,1.1-.5.7-4.6,1.9-9,2.6-13.6.1-.6.1-1.8.9-1.7.9.1.2,1.2.1,1.7-.6,4-1.2,8.1-2.1,12,0,.1-.1.3-.1.4-.3,1.7-.2,1.8,1.3,1.2,2.2-.7,4.3-1.5,6.5-2.3h0c-.3.9-1.1,1.4-1.8,1.8-2,1.1-4,2.3-6.1,3.1-1.1.5-1.1,1.7-1.3,2.6-.5,2.2-1,4.5-1.6,6.7-.1.4-.5.8-.1,1.1.3.3.7-.1,1-.3,2.8-.9,5.4-2,8-3.4.3-.1.5-.2.8-.1h0c-1.5,2-3.7,3-5.8,4.1-1.4.8-3,1.2-4.5,1.9-.3.1-.6.2-.6.5-.5,3.4-2.1,6.4-3.1,9.6-.1.3-.4.6-.1.9.3.2.6,0,.9-.1,3.3-.9,6.5-1.9,9.6-3,.2-.1.5,0,.7-.1h0c-.8,1.4-2.2,1.8-3.5,2.4-2.3,1-4.6,2.1-7,2.6-1.4.3-2.2,1-2.8,2.5-.7,2-1.7,3.9-2.6,5.9-1,1.7-2.1,3.5-3.2,5.1-.7,1.1-1.5,2.1-2.3,3.2-.3.5-.7.9-1.2.2-.4-.5-1.3-.7-.5-1.6,1.6-1.7,2.8-3.7,4-5.7.6-1,1.1-1.8-.5-2.2-.3-.1-.5-.3-.7-.4.3-.2.6-.2.8,0,1.5.8,2.1-.1,2.6-1.3.5-1.3,1.2-2.6,1.8-3.9.6-1.2.3-2-.8-2.8-2.6-2-4.6-4.5-6.3-7.3-.2-.4-.5-.7-.4-1.2.6,0,.6.6.9.9,2.2,2.1,4.2,4.5,6.8,6.3,1,.7,1.4.3,1.7-.5,1-3,2.4-5.9,3.2-9,.2-.8-.2-1.1-.8-1.4-3-1.7-5.1-4.4-7.1-7.1,0-.4-.1-.8-.2-1.2h0Z"/>
  </g>
  <g>
    <path class="cls-3" d="M513.3,178.9c-8.9-.9-15.9-5.2-21.4-12.1-5.7-7.2-7.4-15.5-6.6-24.5,1.1-12.5,6.4-23.5,12.8-34,3.7-6.1,7.8-11.8,10.7-18.3.8-1.7,1.2-3.5,1.8-5.4,3.7,2.5,7,5.4,10.1,8.3,11.2,10.4,20.6,22.1,25.7,36.8,3.2,9.4,4.6,19,1,28.7-4.3,11.8-16,20.5-27.8,20.7.4-2.9.9-5.9,1-8.8,0-2.1.9-3.4,2.6-4.4,3-1.8,5.7-4.1,8.3-6.4,1.5-1.3,3.2-2.4,3.7-4.5,0-.1.1-.1.2-.2q-.1.1-.2.1c-.3.1-.7.2-.9.4-3.8,2.8-7.6,5.5-11.6,8-.4.2-.8.7-1.2.5-.5-.2-.3-.8-.3-1.2,0-4.6.9-9.3.1-13.9-.1-.5.3-.7.6-.9,1.8-1.4,3.6-2.7,5.2-4.3,2.3-2.3,4.9-4.5,6.1-7.8.1-.1.2-.3.3-.4,0,0-.1-.1-.2-.1,0,.2-.1.3-.2.5-.4,0-.8.2-1.1.5-2.9,2.8-6,5.4-9.3,7.7-.4.3-.7,1-1.3.8s-.3-.9-.3-1.4c-.1-3.2-.4-6.3-.7-9.5-.1-1.3-.7-2.9.6-3.9,2.5-2,4.6-4.4,6.9-6.7.8-.8,1.7-1.7,1.7-3.1,0-.1.1-.1.1-.2,0,.1-.1.1-.1.2-2.6,1.9-5.1,3.8-7.7,5.7-1.8,1.3-2,1.2-2.3-1.1v-.6c-.4-5.6-1.3-11.2-2.2-16.7-.1-.8.4-2.4-.8-2.2-1.1.2-.6,1.8-.5,2.6,1.1,6.3,1.3,12.7,2.3,18.9.2,1,0,1.4-1.3,1.2-2.9-.7-5.5-1.9-8.3-2.8-.7-.2-1.4-.9-2.2-.2.3.7.9,1,1.5,1.3,2.9,1.7,5.8,3.3,9,4.3,1.1.3,1.8,1,1.8,2.1-.1,4,.3,8,.5,12,0,1.3-.5,1.4-1.6,1.1-2.5-.7-5-1.5-7.4-2.5-2.1-.8-4-2.1-6.2-2.6q-.1-.1-.2-.2c0,.1.1.1.2.2.3.4.6.9,1,1.2,3.9,2.8,7.8,5.4,12.5,6.4.9.2,1.6.4,1.7,1.6.2,4.4-.4,8.8-.5,13.2,0,1.1-.5,1.9-2.1,1.4-4.2-1.3-7.8-3.6-11.7-5.4-.5-.2-.8-1.1-1.6-.8,0,.8.6,1.1,1,1.5,3.5,3,7.2,5.6,11.5,7.1,1.8.6,2.5,1.5,2.2,3.4-.3,2-.6,3.9-.8,5.9-.2,1.9-.6,3.3-2.9,2.8-.5-.5-.9-.4-1.2,0h0ZM536.5,154.1q0-.1-.1-.2h-.2q0,.1.1.2h.2Z"/>
    <path class="cls-2" d="M504.1,140.3c2.2.5,4.1,1.7,6.2,2.6,2.4,1,4.9,1.8,7.4,2.5,1.1.3,1.7.2,1.6-1.1-.1-4-.6-8-.5-12,0-1.1-.6-1.8-1.8-2.1-3.2-.9-6.1-2.6-9-4.3-.5-.3-1.2-.6-1.5-1.3.8-.7,1.6-.1,2.2.2,2.8.9,5.4,2.2,8.3,2.8,1.2.3,1.4-.1,1.3-1.2-1-6.3-1.2-12.7-2.3-18.9-.2-.9-.6-2.5.5-2.6,1.2-.2.7,1.5.8,2.2,1,5.6,1.8,11.1,2.2,16.7v.6c.3,2.3.5,2.4,2.3,1.1,2.6-1.9,5.1-3.8,7.7-5.7h0c0,1.3-.8,2.2-1.7,3.1-2.3,2.2-4.4,4.7-6.9,6.7-1.3,1.1-.7,2.6-.6,3.9.3,3.2.6,6.3.7,9.5,0,.5-.3,1.2.3,1.4s.9-.5,1.3-.8c3.3-2.3,6.4-4.9,9.3-7.7.3-.3.6-.5,1.1-.5h0c-1.2,3.2-3.7,5.4-6.1,7.8-1.6,1.6-3.5,2.9-5.2,4.3-.3.2-.7.5-.6.9.7,4.7-.1,9.3-.1,13.9,0,.4-.3,1,.3,1.2.5.2.8-.3,1.2-.5,4-2.5,7.8-5.2,11.6-8,.2-.2.6-.2.9-.4h0c-.5,2.1-2.2,3.3-3.7,4.5-2.6,2.3-5.3,4.6-8.3,6.4-1.7,1-2.6,2.3-2.6,4.4-.1,2.9-.6,5.9-1,8.8-.7,2.7-1.3,5.4-2.1,8.1-.5,1.7-1.1,3.4-1.7,5.1-.3.8-.6,1.4-1.5.7-.7-.5-2.1-.3-1.3-2,1.4-2.9,2.1-6,2.9-9.1.4-1.6.7-2.9-1.7-2.7-.4,0-.8-.2-1.2-.3.3-.4.7-.4,1.1-.4,2.3.5,2.8-.9,2.9-2.8.2-2,.5-3.9.8-5.9.3-1.8-.5-2.8-2.2-3.4-4.3-1.5-8-4.1-11.5-7.1-.4-.4-1-.7-1-1.5.8-.3,1.1.6,1.6.8,3.9,1.9,7.5,4.2,11.7,5.4,1.6.5,2-.2,2.1-1.4.1-4.4.7-8.8.5-13.2-.1-1.2-.8-1.4-1.7-1.6-4.8-1-8.7-3.7-12.5-6.4,0,.2-.2-.3-.5-.7h0Z"/>
  </g>
  <g>
    <path class="cls-2" d="M528.1,175.2c-4.9-7.4-6.1-15.6-4.3-24.2,1.9-9,7.2-15.6,14.7-20.7,10.4-7.1,22.2-10,34.4-11.8,7-1,14.1-1.5,21-3.4,1.8-.5,3.5-1.3,5.3-2.1.4,4.4.3,8.8,0,13.1-.9,15.3-3.9,30-12,43.2-5.2,8.5-11.7,15.6-21.4,19.1-11.8,4.2-26,.7-33.7-8.2,2.5-1.6,5.1-3,7.4-4.9,1.7-1.3,3.2-1.4,5.1-.8,3.3,1.2,6.8,1.7,10.2,2.3,1.9.3,3.9,1,5.9-.1h.2c-.1,0-.2,0-.2-.1-.3-.2-.5-.4-.9-.5-4.6-1.1-9.1-2.4-13.6-3.9-.4-.1-1-.1-1.2-.6-.2-.6.5-.7.8-1,3.6-2.9,7.7-5.2,10.8-8.8.3-.4.7-.2,1.1-.1,2.2.4,4.4,1.1,6.6,1.3,3.3.3,6.6.9,9.8-.3h.5v-.2c-.2.1-.3.1-.5.2-.3-.3-.6-.5-1-.5-4-.5-8-1.2-11.9-2.3-.5-.1-1.2.1-1.4-.5s.5-.9.9-1.2c2.4-2.1,4.6-4.4,6.9-6.6.9-.9,1.8-2.4,3.4-2.1,3.2.6,6.3.7,9.5,1,1.2.1,2.4.2,3.4-.6h.2-.2c-3.1-.8-6.2-1.5-9.3-2.3-2.2-.6-2.2-.7-.6-2.5.1-.1.3-.3.4-.4,4.1-3.9,7.8-8.1,11.5-12.4.5-.6,2.1-1.2,1.2-2.1-.8-.7-1.7.7-2.3,1.3-4.2,4.8-8.9,9.1-13.1,13.8-.7.8-1.1.9-1.7-.2-1.3-2.6-2-5.5-3.1-8.2-.3-.7-.2-1.6-1.3-1.8-.3.7-.2,1.3-.1,1.9.5,3.3,1.1,6.6,2.4,9.6.5,1.1.3,2-.5,2.7-3.2,2.5-5.9,5.3-8.9,8-1,.8-1.5.5-1.9-.6-1-2.4-2-4.8-2.8-7.3-.7-2.1-.9-4.4-2-6.4v-.2.2c-.1.5-.3,1.1-.2,1.6.3,4.7.8,9.5,3,13.8.4.8.7,1.5-.2,2.3-3.3,3-7,5.3-10.5,8-.9.7-1.7.8-2.4-.7-1.7-4-2.2-8.3-3.3-12.5-.1-.6.4-1.3-.4-1.8-.6.5-.5,1.2-.5,1.7-.1,4.6.3,9.1,1.9,13.4.7,1.7.4,2.9-1.2,3.8-1.7,1-3.4,2-5.1,3.2-1.5,1.1-2.9,1.6-4-.5,0,.1-.3-.1-.8-.1h0ZM562,177.3l.1-.1-.1-.1c0,.1-.1.1-.1.1,0,0,.1,0,.1.1Z"/>
    <path class="cls-3" d="M551.9,143.6c1.1,2,1.3,4.3,2,6.4.8,2.5,1.7,4.9,2.8,7.3.5,1,1,1.4,1.9.6,3-2.6,5.8-5.5,8.9-8,.8-.7,1-1.6.5-2.7-1.3-3.1-1.9-6.4-2.4-9.6-.1-.6-.3-1.3.1-1.9,1.1.2,1,1.2,1.3,1.8,1.1,2.7,1.8,5.6,3.1,8.2.6,1.1,1,1,1.7.2,4.2-4.7,9-9,13.1-13.8.6-.7,1.5-2.1,2.3-1.3.9.8-.7,1.5-1.2,2.1-3.7,4.3-7.4,8.5-11.5,12.4-.1.1-.3.3-.4.4-1.6,1.7-1.5,1.9.6,2.5,3.1.8,6.2,1.6,9.3,2.3h0c-1,.9-2.2.8-3.4.7-3.2-.3-6.4-.4-9.5-1-1.7-.3-2.5,1.2-3.4,2.1-2.3,2.2-4.5,4.5-6.9,6.6-.4.3-1.1.5-.9,1.2.2.6.9.4,1.4.5,3.9,1.1,7.9,1.8,11.9,2.3.4.1.8.2,1,.5h0c-3.2,1.2-6.6.6-9.8.3-2.2-.2-4.4-.8-6.6-1.3-.4-.1-.8-.2-1.1.1-3.1,3.5-7.2,5.8-10.8,8.8-.3.3-1,.4-.8,1,.2.5.7.5,1.2.6,4.5,1.5,9,2.7,13.6,3.9.3.1.6.3.9.5h0c-1.9,1-4,.4-5.9.1-3.5-.6-6.9-1.1-10.2-2.3-1.9-.7-3.4-.6-5.1.8-2.3,1.8-4.9,3.3-7.4,4.9-2.5,1.2-5,2.4-7.5,3.6-1.6.7-3.3,1.3-5,1.9-.8.3-1.5.5-1.5-.7-.1-.8-1.1-1.8.7-2.3,3.1-.8,6-2.2,8.9-3.5,1.5-.7,2.7-1.3,1-3-.3-.3-.4-.7-.5-1.1.5,0,.8.2,1,.6,1.1,2.1,2.5,1.6,4,.5,1.6-1.1,3.3-2.1,5.1-3.2,1.6-.9,1.8-2.1,1.2-3.8-1.6-4.3-2-8.8-1.9-13.4,0-.6-.1-1.2.5-1.7.8.4.3,1.2.4,1.8,1.1,4.2,1.6,8.5,3.3,12.5.7,1.5,1.5,1.4,2.4.7,3.4-2.8,7.2-5,10.5-8,.9-.8.6-1.5.2-2.3-2.2-4.3-2.7-9-3-13.8-.4-1-.2-1.5-.1-2h0Z"/>
  </g>
  <g>
    <path class="cls-3" d="M623.9,284.4c6.1-6.5,13.7-9.5,22.5-9.7,9.2-.2,16.8,3.5,23.5,9.6,9.3,8.5,14.8,19.3,19.4,30.7,2.6,6.6,4.7,13.4,8.1,19.6.9,1.6,2.1,3.1,3.2,4.7-4.2,1.4-8.5,2.3-12.8,3-15.1,2.6-30.1,3.1-44.8-1.8-9.4-3.1-17.9-7.8-23.5-16.5-6.8-10.5-6.7-25.2.2-34.6,2.1,2.1,4.1,4.3,6.4,6.1,1.7,1.3,2.1,2.8,1.9,4.8-.4,3.5-.1,7,.1,10.5.1,1.9,0,4,1.4,5.7v.2-.2c.1-.3.2-.6.2-.9.1-4.7.2-9.4.7-14.1,0-.5-.1-1,.3-1.3.5-.3.8.3,1.2.5,3.7,2.8,6.9,6.3,11,8.5.4.2.3.6.4,1,.1,2.2,0,4.5.3,6.8.4,3.3.6,6.6,2.5,9.5,0,.2.1.3.2.5q.1,0,.2-.1c-.1-.1-.2-.3-.3-.4.2-.3.3-.7.3-1.1-.5-4-.7-8.1-.5-12.1,0-.5-.4-1.1.2-1.5.6-.3.9.3,1.3.6,2.6,1.8,5.3,3.5,8,5.2,1.1.7,2.7,1.2,2.8,2.9.1,3.2.8,6.4,1.2,9.5.2,1.2.3,2.4,1.4,3.2q0,.1.1.2,0-.1-.1-.2c0-3.2.1-6.4.1-9.5.1-2.2.2-2.3,2.3-1.2.2.1.3.2.5.3,4.7,3.1,9.7,5.7,14.7,8.3.7.4,1.7,1.8,2.3.7.5-1-1-1.5-1.8-2-5.6-3-10.9-6.6-16.5-9.6-.9-.5-1.1-.9-.2-1.7,2.3-1.9,4.9-3.2,7.2-4.9.6-.4,1.5-.6,1.5-1.7-.7-.2-1.3.1-1.9.4-3.1,1.3-6.1,2.6-8.8,4.6-1,.7-1.9.8-2.8.1-3.1-2.5-6.6-4.6-9.8-6.9-1-.7-.8-1.3.1-2,2.1-1.6,4.2-3,6.4-4.4,1.9-1.2,4.1-1.9,5.8-3.4h.2-.2c-.5,0-1.1,0-1.6.1-4.5,1.4-9,2.9-12.7,6.1-.7.6-1.3,1-2.3.4-3.6-2.5-6.7-5.6-10.2-8.4-.9-.7-1.2-1.5.2-2.5,3.5-2.6,7.6-4.1,11.4-6.1.5-.3,1.4,0,1.6-.8-.6-.4-1.2-.2-1.8-.1-4.5,1-8.8,2.4-12.6,4.9-1.5,1-2.7,1.1-4-.3-1.4-1.4-2.8-2.9-4.2-4.2-1.4-1.3-2.2-2.5-.5-4,.6-.2.7-.5.6-1h0ZM629.7,317.9c.1,0,.1.1.2.1,0,0,0-.1.1-.1-.1,0-.1-.1-.2-.1-.1-.1-.1,0-.1.1Z"/>
    <path class="cls-2" d="M660.2,300.3c-1.7,1.5-3.9,2.3-5.8,3.4-2.2,1.4-4.3,2.8-6.4,4.4-.9.7-1.1,1.2-.1,2,3.2,2.3,6.7,4.4,9.8,6.9.8.7,1.8.6,2.8-.1,2.7-2,5.8-3.3,8.8-4.6.6-.2,1.2-.6,1.9-.4.1,1.1-.9,1.3-1.5,1.7-2.4,1.7-5,3-7.2,4.9-1,.8-.8,1.2.2,1.7,5.6,3,10.8,6.7,16.5,9.6.8.4,2.3,1,1.8,2-.6,1.1-1.6-.3-2.3-.7-5-2.6-10-5.3-14.7-8.3-.2-.1-.3-.2-.5-.3-2-1.1-2.2-1.1-2.3,1.2-.1,3.2-.1,6.4-.1,9.5h0c-1.1-.8-1.3-2-1.4-3.2-.4-3.2-1-6.3-1.2-9.5-.1-1.7-1.7-2.2-2.8-2.9-2.7-1.7-5.4-3.3-8-5.2-.4-.3-.8-.9-1.3-.6s-.1,1-.2,1.5c-.2,4.1,0,8.1.5,12.1,0,.4,0,.8-.3,1.1h0c-1.9-2.9-2.1-6.2-2.5-9.5-.3-2.2-.2-4.5-.3-6.8,0-.4.1-.8-.4-1-4.2-2.2-7.3-5.7-11-8.5-.3-.3-.6-.9-1.2-.5-.4.3-.3.8-.3,1.3-.4,4.7-.6,9.4-.7,14.1,0,.3-.2.6-.2.9h0c-1.4-1.6-1.3-3.8-1.4-5.7-.2-3.5-.5-7-.1-10.5.2-2-.2-3.4-1.9-4.8-2.3-1.8-4.3-4.1-6.4-6.1-1.7-2.2-3.5-4.3-5.2-6.5-1.1-1.4-2-3-3-4.4-.5-.7-.8-1.3.3-1.7.8-.2,1.5-1.5,2.4.2,1.5,2.9,3.5,5.3,5.5,7.9,1,1.3,1.9,2.3,3.2.3.2-.3.6-.5.9-.8.1.4-.1.8-.4,1.1-1.8,1.6-.9,2.8.5,4,1.5,1.3,2.9,2.8,4.2,4.2,1.3,1.4,2.5,1.3,4,.3,3.8-2.5,8.1-3.9,12.6-4.9.6-.1,1.2-.4,1.8.1-.3.9-1.1.5-1.6.8-3.8,2-7.9,3.5-11.4,6.1-1.3,1-1,1.8-.2,2.5,3.5,2.7,6.6,5.9,10.2,8.4,1,.7,1.6.2,2.3-.4,3.7-3.2,8.2-4.7,12.7-6.1.3-.2.9-.1,1.4-.2h0Z"/>
  </g>
  <g>
    <path class="cls-3" d="M444.3,300.6c7.8,4,14.3,9.5,20.2,15.8,12.5,13.5,21,29.3,26.9,46.6.5,1.4.2,2-1.1,2.5-22,8.6-44.5,12.8-67.9,7.8-9.3-2-18.1-5.2-25.2-11.8-12-11.2-15.7-28.2-9.4-43.3.2-.4.3-.8.4-1.1.2.4.1.8.8,1,3.6,1.1,6.6,3.5,10,5,.9.4,1.2,1,1.1,1.9-.7,4.4.1,8.8,1.1,13,.6,2.3,1,4.7,2.7,6.5,0,.1.1.2.1.3,0-.1,0-.2-.1-.3.2-.6,0-1.1-.1-1.6-.9-5.1-1.2-10.3-1-15.5,0-1.4.5-1.8,1.9-1.2,5.3,2.5,10.8,5,16.1,7.5.8.4,1.2.8,1.2,1.8.1,3.5.4,7,1.6,10.4,1,2.7,1.1,5.9,3.6,7.9-.2.4-.2.7,0,1.1,0,.1.1.1.2.2,0-.1-.1-.1-.1-.2.2-.4.2-.7,0-1.1.2-.6.1-1.1-.1-1.6-1.4-4.5-1.5-9.3-2.1-14-.2-1.6.3-2.4,2.2-1.4,2.6,1.3,5.2,2.7,7.9,3.6,3.8,1.3,6.4,3.3,6.3,7.8,0,1.1.5,2.3.9,3.5,1.1,3.2,2.2,6.5,4.5,9.1,0,.1.1.1.1.2,0-.1-.1-.1-.1-.2-.8-3.9-1.5-7.8-2.3-11.8-.2-1.2-.9-3.1-.3-3.7,1-1,2.2.6,3.4.9.8.2,1.8.3,2.5.7,6,2.7,11.9,5.6,18.1,7.8.9.3,2.1,1.7,2.6.4.5-1.1-1.3-1.3-2.2-1.7-7.2-3.4-14.4-6.7-21.7-10-.6-.3-1.5-.4-1.6-1.3,0-1,.8-1.2,1.5-1.6,1.4-.7,2.9-1.5,4.2-2.4,2.4-1.7,5.2-2.5,7.8-4.8-.8,0-1.1,0-1.4.1-5.5,1.2-10.6,3.6-15.4,6.6-.8.5-1.4.5-2.2.2-4.2-2-8.5-4-12.7-5.9-1.5-.7-1.4-1.6-.5-2.6,1.6-1.5,3.1-3,4.9-4.2,2.5-1.7,5.2-3.2,8.3-4.8-.8-.2-1-.3-1.2-.3-5.8,1.3-11.1,3.7-15.2,8.2-1.2,1.3-2,1.1-3.2.5-4.2-2-8.1-4.6-12.4-6.3-1.1-.4-1.9-1.1-2.8-1.8-.8-.6-.6-1,0-1.5,2.7-2.2,5-4.6,8.2-6.2,2.3-1.2,4.5-2.7,6.7-4,.2,0,.4.1.7.1v-.2c-.2,0-.4.1-.6.1-1.6-.2-3.2.4-4.7.8-4.8,1.5-8.8,4.2-12.5,7.4-1,.8-1.8,1.7-3.4.7-3.3-2.1-6.7-4.1-10-6.1,9.2-15.7,26.1-21.9,41.3-18.8,1.7.4,3.5.6,5,1.5,2.7,1.8,5.5,3.1,8.5,3.8h0ZM404.2,346.1h.2c0-.1,0-.2-.1-.2h-.2c0,.1,0,.2.1.2h0Z"/>
    <path class="cls-2" d="M389.7,314.1c3.3,2,6.8,3.9,10,6.1,1.5,1,2.4.1,3.4-.7,3.8-3.2,7.8-5.9,12.5-7.4,1.5-.5,3-1,4.7-.8h0c-2.2,1.4-4.4,2.9-6.7,4-3.1,1.6-5.5,4-8.2,6.2-.6.5-.8.9,0,1.5.9.7,1.8,1.4,2.8,1.8,4.4,1.7,8.2,4.3,12.4,6.3,1.3.6,2.1.8,3.2-.5,4-4.5,9.3-6.9,15.2-8.2.2,0,.4.1,1.2.3-3.2,1.5-5.8,3.1-8.3,4.8-1.8,1.2-3.4,2.7-4.9,4.2-1,.9-1.1,1.9.5,2.6,4.2,1.9,8.5,3.9,12.7,5.9.8.4,1.3.4,2.2-.2,4.8-3,9.8-5.4,15.4-6.6.3-.1.6,0,1.4-.1-2.6,2.3-5.4,3.1-7.8,4.8-1.3.9-2.8,1.6-4.2,2.4-.7.4-1.6.6-1.5,1.6,0,.9,1,1,1.6,1.3,7.2,3.4,14.5,6.7,21.7,10,.8.4,2.6.5,2.2,1.7-.6,1.3-1.8-.1-2.6-.4-6.2-2.1-12.1-5.1-18.1-7.8-.8-.4-1.7-.5-2.5-.7-1.2-.3-2.4-1.9-3.4-.9-.6.6.1,2.4.3,3.7.7,3.9,1.5,7.9,2.3,11.8h0c-2.3-2.6-3.4-5.9-4.5-9.1-.4-1.1-.9-2.3-.9-3.5.1-4.5-2.5-6.4-6.3-7.8-2.7-.9-5.3-2.3-7.9-3.6-1.8-1-2.4-.2-2.2,1.4.6,4.7.7,9.4,2.1,14,.2.5.3,1.1.1,1.6h0c-2.5-2-2.7-5.1-3.6-7.8-1.2-3.3-1.5-6.9-1.6-10.4,0-1-.4-1.4-1.2-1.8-5.4-2.5-10.8-4.9-16.1-7.5-1.4-.7-1.8-.2-1.9,1.2-.2,5.2.2,10.4,1,15.5.1.5.3,1.1.1,1.6h0c-1.7-1.8-2.2-4.2-2.7-6.5-1-4.3-1.8-8.6-1.1-13,.1-.9-.2-1.5-1.1-1.9-3.4-1.5-6.4-4-10-5-.7-.2-.6-.6-.8-1-4.1-2.6-8.1-5.2-12.2-7.7-1.3-.8-1.8-1.5-.7-3,1-1.5,1.7-.8,2.6-.1,3.4,2.6,7.3,5.4,11.4,7.7h0Z"/>
  </g>
  <g>
    <path class="cls-3" d="M261.9,81.9c7-2.1,14.1-2.6,21.3-2.2,15.3.9,29.6,5.4,43.1,12.5,1.1.6,1.3,1.1.8,2.2-8.2,17.9-19.3,33.4-36.3,44-6.7,4.2-13.9,7.4-22,7.5-13.7.2-25.7-7.9-30.7-20.6-.1-.3-.3-.6-.4-.9.3.2.5.4,1,.2,2.8-1.5,6-1.7,8.9-2.8.8-.3,1.3-.1,1.7.5,2.1,3.1,5.1,5.2,8.2,7.2,1.7,1,3.3,2.2,5.4,2.3.1,0,.2.1.2.1-.1,0-.1-.1-.2-.1-.2-.5-.6-.7-1-.9-3.5-2.6-6.7-5.5-9.6-8.7-.8-.8-.8-1.4.5-1.8,4.7-1.6,9.4-3.2,14-4.8.7-.2,1.2-.2,1.8.4,2.1,2,4.3,4,7,5.3,2.1,1.1,4,2.9,6.7,2.6.1.3.3.6.7.6h.2-.2c-.1-.3-.3-.6-.7-.6-.2-.5-.6-.7-1-.9-3.5-1.9-6.2-4.7-9.3-7.2-1.1-.8-1.2-1.6.5-2.1,2.3-.7,4.6-1.4,6.8-2.4,3-1.4,5.8-1.7,8.3,1,.6.7,1.7,1.1,2.5,1.6,2.5,1.3,5.1,2.6,8,2.8h.2-.2c-2.7-1.9-5.5-3.8-8.2-5.8-.9-.6-2.3-1.4-2.3-2,0-1.1,1.7-.9,2.6-1.4.6-.4,1.2-.8,1.9-1.1,5.2-1.8,10.4-3.5,15.4-5.8.7-.3,2.2-.2,1.8-1.3-.4-1-1.5,0-2.3.2-6.3,2.1-12.5,4.3-18.8,6.5-.5.2-1.1.7-1.7.2-.6-.6-.2-1.2,0-1.9.4-1.3.9-2.5,1.1-3.8.5-2.4,1.7-4.5,1.9-7.4-.5.5-.7.7-.8.9-2.6,3.9-4.3,8.3-5.4,12.9-.2.8-.5,1.1-1.2,1.3-3.7,1.3-7.4,2.5-11,3.8-1.3.5-1.8-.2-1.8-1.3.1-1.8.1-3.6.5-5.4.6-2.5,1.2-4.9,2.2-7.7-.6.3-.8.4-.9.5-2.8,4.2-4.6,8.7-4.4,13.7,0,1.5-.5,1.8-1.7,2.2-3.7,1.2-7.5,1.9-11.1,3.4-.9.4-1.8.4-2.7.6-.8.1-.9-.2-.9-.9.3-2.8.4-5.7,1.3-8.5.7-2.1,1.2-4.2,1.7-6.3.2-.1.3-.2.4-.3,0,0-.1-.1-.2-.1-.1.1-.2.3-.3.4-1.1.8-1.7,2-2.3,3.2-2,3.6-2.8,7.6-3.2,11.7-.1,1-.1,2.1-1.6,2.4-3.2.6-6.4,1.4-9.5,2.2-3.6-14.7,3-28.3,13.9-35.2,1.2-.8,2.4-1.6,3.9-2,2.8-.5,5.2-1.4,7.5-2.7h0ZM264.1,132.5l.1-.1c-.1,0-.1-.1-.2-.1l-.1.1q.1.1.2.1h0Z"/>
    <path class="cls-2" d="M236.9,121.6c3.2-.7,6.3-1.6,9.5-2.2,1.5-.3,1.5-1.3,1.6-2.4.4-4.1,1.2-8.1,3.2-11.7.6-1.2,1.2-2.4,2.3-3.2h0c-.6,2.1-1,4.3-1.7,6.3-1,2.8-1,5.6-1.3,8.5-.1.7.1,1,.9.9.9-.1,1.8-.2,2.7-.6,3.6-1.5,7.4-2.2,11.1-3.4,1.1-.4,1.7-.7,1.7-2.2-.2-5.1,1.6-9.6,4.4-13.7.1-.1.3-.2.9-.5-1,2.8-1.7,5.2-2.2,7.7-.4,1.8-.5,3.6-.5,5.4,0,1.1.4,1.8,1.8,1.3,3.7-1.3,7.3-2.6,11-3.8.7-.2,1-.5,1.2-1.3,1.1-4.6,2.8-8.9,5.4-12.9.1-.2.3-.4.8-.9-.2,2.9-1.5,5-1.9,7.4-.2,1.3-.7,2.6-1.1,3.8-.2.6-.6,1.3,0,1.9.6.5,1.2,0,1.7-.2,6.3-2.2,12.5-4.4,18.8-6.5.7-.2,1.9-1.2,2.3-.2.4,1.1-1.1,1-1.8,1.3-5,2.3-10.2,4-15.4,5.8-.7.2-1.3.7-1.9,1.1-.9.5-2.5.3-2.6,1.4,0,.7,1.4,1.4,2.3,2,2.7,1.9,5.5,3.8,8.2,5.8h0c-2.9-.2-5.5-1.6-8-2.8-.9-.4-1.9-.8-2.5-1.6-2.5-2.8-5.2-2.4-8.3-1-2.2,1-4.5,1.7-6.8,2.4-1.7.5-1.5,1.3-.5,2.1,3.1,2.4,5.8,5.2,9.3,7.2.4.2.8.5,1,.9h0c-2.7.3-4.6-1.5-6.7-2.6-2.6-1.3-4.8-3.3-7-5.3-.6-.6-1.1-.6-1.8-.4-4.7,1.6-9.3,3.3-14,4.8-1.3.4-1.2.9-.5,1.8,2.9,3.2,6.1,6.1,9.6,8.7.4.3.8.5,1,.9h0c-2.1-.1-3.8-1.3-5.4-2.3-3.1-2-6.1-4.1-8.2-7.2-.4-.6-1-.8-1.7-.5-2.9,1.1-6.1,1.3-8.9,2.8-.5.3-.7,0-1-.2-3.9.8-7.9,1.6-11.8,2.4-1.2.3-1.9.1-2.2-1.4-.2-1.5.5-1.4,1.5-1.6,3.7-.4,7.7-1,11.5-2h0Z"/>
  </g>
  <g>
    <path class="cls-2" d="M642.3,218.3c8.6-1.1,17.2-.3,25.6,1.6,17.9,4,33.9,12.2,48.6,23.2,1.2.9,1.3,1.5.5,2.7-13.2,19.6-29.4,35.7-51.5,44.9-8.8,3.6-17.8,6-27.5,4.6-16.2-2.4-28.9-14.4-32.3-30.4-.1-.4-.2-.8-.3-1.2.4.2.6.6,1.2.4,3.6-1.2,7.4-.9,11.1-1.5,1-.2,1.6.2,2,1,1.9,4,5,7.2,8.3,10.1,1.8,1.6,3.5,3.3,5.9,3.8.1.1.2.1.2.1-.1-.1-.2-.1-.2-.2-.1-.6-.6-.9-1-1.3-3.6-3.7-6.8-7.8-9.6-12.1-.7-1.2-.7-1.8.9-2,5.9-.9,11.7-2,17.5-3,.9-.1,1.4,0,2,.8,2.1,2.8,4.3,5.6,7.2,7.6,2.3,1.7,4.2,4.2,7.4,4.4.1.4.2.7.6.9.1,0,.2,0,.2.1-.1,0-.2-.1-.2-.1-.1-.4-.2-.7-.6-.9-.1-.6-.5-1-1-1.3-3.7-3-6.5-6.8-9.6-10.3-1.1-1.2-1.1-2.2,1-2.4,2.9-.4,5.8-.7,8.5-1.5,3.9-1.1,7.2-.9,9.6,2.8.6,1,1.7,1.6,2.7,2.3,2.8,2,5.5,4.1,8.9,5q.1,0,.2.1-.1,0-.2-.1c-2.8-2.8-5.7-5.6-8.5-8.4-.9-.9-2.5-2.1-2.3-2.9.2-1.3,2.2-.7,3.3-1.2.8-.3,1.6-.7,2.5-.9,6.5-1.2,13-2.1,19.3-3.9.9-.2,2.7.2,2.4-1.2-.2-1.2-1.8-.3-2.7-.2-7.8,1.3-15.7,2.7-23.5,4-.7.1-1.5.6-2-.1-.6-.8,0-1.5.3-2.2.8-1.4,1.5-2.8,2.1-4.3,1-2.7,2.9-5,3.7-8.4-.7.5-.9.6-1.1.9-3.9,4.1-6.7,9-8.9,14.1-.4.9-.8,1.2-1.7,1.4-4.6.8-9.2,1.5-13.8,2.4-1.7.3-2.1-.6-1.8-1.9.4-2.1.9-4.2,1.7-6.3,1.2-2.8,2.4-5.6,4.2-8.6-.8.3-1,.3-1.2.4-4.1,4.4-7.1,9.4-7.8,15.4-.2,1.8-1,2-2.4,2.2-4.6.7-9.3.8-13.8,1.9-1.1.3-2.2.1-3.3.1-1,0-1.1-.4-.8-1.2,1-3.3,1.5-6.7,3.2-9.8,1.2-2.3,2.2-4.8,3.3-7.1.2-.1.4-.2.6-.3,0-.1-.1-.1-.2-.2-.2.1-.3.3-.5.4-1.5.8-2.4,2.1-3.4,3.3-3.1,3.9-4.8,8.4-6.1,13.2-.3,1.2-.5,2.4-2.4,2.5-3.9.1-7.8.4-11.7.7-1.4-18.1,9.1-32.9,23.4-38.9,1.6-.7,3.2-1.4,5-1.6,2.9.3,5.9-.2,8.8-1.4h0ZM635,278.6c.1,0,.1-.1.2-.1-.1,0-.1-.1-.2-.1s-.1.1-.2.1c.1,0,.2.1.2.1h0Z"/>
    <path class="cls-3" d="M604.9,260.4c3.9-.2,7.8-.6,11.7-.7,1.8,0,2.1-1.3,2.4-2.5,1.3-4.8,3-9.3,6.1-13.2,1-1.2,1.9-2.6,3.4-3.3h0c-1.1,2.4-2,4.9-3.3,7.2-1.7,3.1-2.3,6.5-3.2,9.8-.2.8-.1,1.2.8,1.2,1.1,0,2.2.1,3.3-.1,4.5-1.1,9.2-1.1,13.8-1.9,1.4-.2,2.2-.5,2.4-2.2.8-6,3.8-11,7.8-15.4.1-.1.4-.2,1.2-.4-1.7,3.1-3,5.8-4.2,8.6-.8,2-1.2,4.1-1.7,6.3-.3,1.3.2,2.2,1.8,1.9,4.6-.8,9.2-1.6,13.8-2.4.8-.1,1.3-.4,1.7-1.4,2.2-5.2,5-10,8.9-14.1.2-.2.5-.4,1.1-.9-.8,3.4-2.7,5.7-3.7,8.4-.6,1.5-1.3,2.9-2.1,4.3-.4.7-1,1.4-.3,2.2.6.7,1.3.3,2,.1,7.8-1.3,15.7-2.7,23.5-4,.9-.1,2.5-1,2.7.2.3,1.4-1.5.9-2.4,1.2-6.3,1.8-12.9,2.7-19.3,3.9-.8.2-1.7.6-2.5.9-1.1.4-3.1-.2-3.3,1.2-.1.8,1.4,1.9,2.3,2.9,2.8,2.8,5.7,5.6,8.5,8.4h0c-3.4-.9-6.2-2.9-8.9-5-1-.7-2.1-1.4-2.7-2.3-2.4-3.8-5.7-3.9-9.6-2.8-2.8.8-5.7,1.1-8.5,1.5-2,.2-2.1,1.2-1,2.4,3.2,3.5,5.9,7.4,9.6,10.3.5.4.9.7,1,1.3h0c-3.2-.2-5.1-2.7-7.4-4.4-2.8-2.1-5.1-4.8-7.2-7.6-.6-.8-1.2-.9-2-.8-5.8,1-11.7,2-17.5,3-1.6.2-1.7.9-.9,2,2.8,4.4,6,8.4,9.6,12.1.4.4.9.7,1,1.3h0c-2.5-.5-4.2-2.3-5.9-3.8-3.3-2.9-6.4-6-8.3-10.1-.4-.8-1-1.1-2-1-3.7.7-7.5.4-11.1,1.5-.7.2-.8-.1-1.2-.4-4.8.2-9.6.3-14.5.6-1.5.1-2.3-.2-2.3-2.1,0-1.8.9-1.6,2.1-1.6,5.1,0,9.8.1,14.5-.3h0Z"/>
  </g>
  <path class="cls-1" d="M610.8,248c-5.2,9.4-13.6,7.5-18.4,13.8,7.4,10.4,23.7,7.1,33.9,21.9-116.9-18.5-229.3-40.4-348.6-55,36.9,29.7,74.7,48.7,103.6,78.8-1.1,1.8-2.2,3.5-3.4,5.2-16.7-10.7-33.5-21-49.9-32.1-26.5-17.9-54-33.9-82.9-47.7-17.5-8.4-35.3-9.2-54.1-6.4-76,11.1-148.7,36.4-223.3,53.5-57.2,13.1-114,29.3-172.5,34.9-66.7,6.3-53,5.7-54.2-46.8-.6-27.4.6-27.7,28.2-24.9,122.9,12.3,241.9-3.7,356.4-50.6,30-12.3,53.5-34.3,78.4-54.3,8-6.4,15.2-14.6,25.5-17.2,1.2,1.5,2.4,2.9,3.5,4.4-24.7,22.1-49.4,44.3-73.6,66,2.4,6.5,6.8,5.2,10.3,5,59.8-3.5,118.1,7.8,176.6,17.4,55.2,9.1,107.8-3.1,158.5-25.3,5.7-2.5,13.8-10.9,17.8-2.6,3.5,7.2-7.5,10.6-13.2,13.4-17.6,8.8-35.7,16.6-59.1,27.4,30.2,7.4,55.6,12.9,80.7,19.9,25.8,7.1,51.6,3.7,79.8,1.3h0Z"/>
</svg>